# xmcd
#
# Track frame offsets: 
#        150
#        9472
#        23627
#        39377
#        67874
#        98737
#        133961
#        156869
#        174811
#        189214
#        205566
#        226505
#        252940
#        278871
#        314112
#
# Disc length: 4533 seconds
#
# Revision: 0
# Processed by: cddbd v1.5.2PL0 Copyright (c) Steve Scherf et al.
# Submitted via: ExactAudioCopy v0.95b4
#
DISCID=b611b30f
DTITLE=Jon Lord with The Hoochie Coochie Men - Live At The Basement
DYEAR=2003
DGENRE=Blues
TTITLE0=Introduction
TTITLE1=Hideaway
TTITLE2=Lonesome Traveller Blues
TTITLE3=Blues With A Feeling
TTITLE4=You Got Good Business
TTITLE5=Green Onions
TTITLE6=24/7 Blues
TTITLE7=Baby Please Don't Go
TTITLE8=The Money Doesn't Matter
TTITLE9=Strange Brew
TTITLE10=Dallas
TTITLE11=Just Wanna Make Love To You
TTITLE12=You Need Love
TTITLE13=The Hoochie Coochie Man
TTITLE14=When A blindman Cries (single Edit)
EXTD=
EXTT0=
EXTT1=
EXTT2=
EXTT3=
EXTT4=
EXTT5=
EXTT6=
EXTT7=
EXTT8=
EXTT9=
EXTT10=
EXTT11=
EXTT12=
EXTT13=
EXTT14=
PLAYORDER=
